<?xml version="1.0" encoding="utf-8"?>
<!-- Generator: Adobe Illustrator 21.0.0, SVG Export Plug-In . SVG Version: 6.00 Build 0)  -->
<svg version="1.1" id="Layer_2" xmlns="http://www.w3.org/2000/svg" xmlns:xlink="http://www.w3.org/1999/xlink" x="0px" y="0px"
	 viewBox="0 0 96 96" style="enable-background:new 0 0 96 96;" xml:space="preserve">
<style type="text/css">
	.st0{fill:#F8A31D;}
</style>
<path class="st0" d="M48,0c-26.5,0-48,21.5-48,48c0,26.5,21.5,48,48,48c26.5,0,48-21.5,48-48C96,21.5,74.5,0,48,0z M80.3,72.8
	c-2.8,3.6-6.1,6.7-9.9,9.2c-1.9-3.2-8.5-3.6-11.8-3.3c-4,0.3-8.6,2.9-11.1,3.5c-2.9,0.6-5,1.5-7.5,1.6c-2.2,0.1-2.5,1.7-4.7,3
	C19.1,81.4,7.3,66,7.3,48c0-5.2,1-10.1,2.7-14.7c3.1,0.3,10.1,0.4,11,2.9c0.9,2.6-3.2,5.2-3.2,10.6c0,5.9,7.6,5.8,7.6,10.3
	S27,66.8,27,68.3c0,1.5,6.3,9.7,8.7,9.7c2.4,0,0.5-9.2,0.6-11.6c0.1-1.6,1.1-6.4,1.4-7.5c2-7.7,9.7-6.9,11.4-11.5
	C54.6,32.8,37.4,32,35,31.2c-2.3-0.8-6.3-0.8-7.8-0.4c-1.5,0.5-4.5-2-4.5-4.2c0-2.2,6-6.4,7.8-9.4c1.8-3,3.3-2.5,6.7-5.6
	c1.5-1.4,4-2.1,5-3.9c1.9-0.3,3.8-0.4,5.8-0.4c4.5,0,8.8,0.7,12.9,2.1c-1,1.2-1.7,2.3-1.6,3c1.1,11,8.6,2.7,10,4.3
	c5.2,5.7-9.7,7.7-4.5,18c2.5,5,5.4,6.4,9.6,6.4c4.2,0.1,5.7,7.2,6.1,10.2c0.3,3,0,10.6-1.6,13.9C77.4,68.5,78.9,71.6,80.3,72.8z"/>
</svg>
