<svg id="Layer_1" data-name="Layer 1" xmlns="http://www.w3.org/2000/svg" viewBox="0 0 208.25 208.25"><defs><style>.cls-1{fill:#356ea0;}</style></defs><path class="cls-1" d="M151.6,6.77c-6.9-1.87-13.15,1.39-15.74,8.7-3.91,11-7.71,22-17.31,29.72-2.34,1.9-4.35,3.15-7.44,3.1-9.51-.11-19,.06-28.51-.11-5.13,0-9.1,1.85-11.9,6s-5.63,8.27-8.39,12.43c-1.85,2.83-3.65,5.72-6,9.39C55.45,58.11,60,49.28,73.59,46.46V39.08a15.52,15.52,0,0,0-3.12-.25C60,40.31,53,46.25,50.08,56.26a71.63,71.63,0,0,0-2.5,17.22c-.52,14-1.64,28,2.2,41.74,2.12,7.47,6.77,12,14.12,14,3,.81,6.12,1.34,9.83,2.13l-.1,5.78c0,18-.09,36,0,54,.05,9.05,5.58,15.58,14,16.84,5.35.81,9.7-1.55,13.85-4.55,4.23,3.2,8.64,5.39,14,4.5,8.52-1.42,13.82-8,13.82-17.49q.12-54,0-108a12.69,12.69,0,0,1,2.69-8.25c4.81-6.21,8.9-13,14-18.9,8.39-9.74,11.24-21.78,14.79-33.51C162.71,15.26,158.22,8.56,151.6,6.77Zm-78.82,115c-9.18.36-13.92-3.19-15.92-11.44H72.78ZM71.67,99.5a10.49,10.49,0,0,1-14.18.18c-2.08-1.8-3.31-4.09-1.77-6.61,6.76-11,13.69-22,20.58-33,.15-.23.55-.33,1.7-1l5.45,7.79C74.36,72.21,70.16,81.24,64,88.5c-1.72,2-1,4.2,1,5.68,2.32,1.66,4.42.95,6.09-1.18,3.8-4.88,7.51-9.8,11.34-14.63,2.27-2.77,5.12-2.7,6.12.23A4.85,4.85,0,0,1,88,82.67C82.67,88.43,77.47,94.29,71.67,99.5Zm19-5.8c-.92,8.52-2.63,11.93-7.15,15.12C81,103.2,82.41,100.77,90.63,93.7Zm29.82,94.72a26.3,26.3,0,0,1-.43,5.46,6.84,6.84,0,0,1-7.39,5.35,6.68,6.68,0,0,1-6.46-5.89,25.79,25.79,0,0,1-.16-4.48V124.59H97V188c0,1.34.11,2.67,0,4-.36,4.47-3.3,7.3-7.3,7.3-3.78-.07-6.67-2.85-7.15-7a31.41,31.41,0,0,1-.07-3.5V118.66c14.11-7.34,20.12-20.38,15.93-36.14-1.83-7-5.38-13.56-8.18-20.3-.62-1.47-1.41-2.89-2.41-5,8.47,0,16.24-.17,24,.14,1.44.06,3.14,1.78,4.14,3.15A25.33,25.33,0,0,1,120.74,76Q120.62,132.2,120.45,188.42ZM151.9,21.8c-3.33,9.85-5.47,20.2-12.74,28.4-3.79,4.31-6.91,9.29-10.78,14.59l0,0h0l0,0c-2.24-4.09-4.07-7.38-6.14-11,3.18-3.39,6.66-6.68,9.66-10.39a49.31,49.31,0,0,0,6.25-10c2.16-4.66,3.64-9.63,5.49-14.43,1-2.63,2.54-5,5.85-3.81S152.79,19.17,151.9,21.8Z"/><path class="cls-1" d="M97.43,46.81A23.41,23.41,0,1,0,98.21,0H98a23.41,23.41,0,0,0-.61,46.81ZM97.7,8.5a15.08,15.08,0,0,1,15,14.94A14.83,14.83,0,1,1,97.7,8.5Z"/></svg>