<svg id="Layer_1" data-name="Layer 1" xmlns="http://www.w3.org/2000/svg" viewBox="0 0 267.45 381.24"><defs><style>.cls-1{fill:#296fad;}.cls-2{fill:#f8a31d;}</style></defs><path class="cls-1" d="M294,381.24c-3.39-3-4.1-6.8-4.09-11.12q.09-109.3,0-218.6v-5.79c-1.51.77-2.47,1.18-3.36,1.72-6.29,3.82-12.69,7.46-18.8,11.56-6.3,4.23-12.58,3.8-18.64.23-5.24-3.1-10.07-6.92-15-10.48-7.48-5.36-14.92-10.78-22.94-16.59-1.78,7.33-3.44,14.14-5.11,21-4.13,16.94-8.2,33.9-12.49,50.8-.73,2.9-.27,4.74,1.89,6.84,13.37,13.09,26.16,26.82,40,39.36,9.33,8.44,11.75,18.1,9.55,29.63-5.06,26.56-10.09,53.12-15.57,79.6a49,49,0,0,1-6.55,15.7c-4,6.37-12.92,5.22-15.78-1.85A27.14,27.14,0,0,1,205,362c.78-14.31,2-28.59,3.23-42.86.92-10.43,2.27-20.83,3.13-31.26a6.46,6.46,0,0,0-2.26-4.54c-18.83-16-37.8-31.82-56.63-47.81-6.69-5.68-12.64-12-15.78-20.51-3.88-10.47-2.47-21,.29-31.29,8.14-30.31,16.68-60.52,25.12-90.75,2.39-8.56,7.78-11.47,16.33-9.1,10.32,2.86,20.7,5.53,31,8.62a31.14,31.14,0,0,1,8.9,4.56q20.83,14.94,41.41,30.23c2.18,1.61,3.89,1.86,6.36.61,6.9-3.48,13.92-6.73,21-9.88a4.21,4.21,0,0,0,2.92-4.51c-.12-6.49-.14-13,0-19.46a8.15,8.15,0,0,1,6.06-8.08c3.7-1,6.87.13,8.76,3.28a15.54,15.54,0,0,1,1.7,6.72c.28,3.85.11,7.73.14,11.6a5,5,0,0,0,.26.88c2.13-.41,4.27-.94,6.44-1.21,4.46-.55,7.75,1.37,9.9,5.23s.95,7.25-1.68,9.94a100.9,100.9,0,0,1-11.78,10.27,7.07,7.07,0,0,0-3.27,6.43q.12,116,.12,232.07c0,4.18-1.13,7.54-4.44,10.1Z" transform="translate(-56.9 0)"/><path class="cls-2" d="M94.85,187.28c-10.19-1.73-22.35-5-32.06-14.07-4.8-4.5-6.5-10.27-5.71-16.67C58.77,143,64.75,131,72.38,120A306.22,306.22,0,0,1,95.9,90.09c9.74-10.83,22.28-16.68,37.2-15.86,8.29.45,12.35,5.24,11.9,13.54a32.85,32.85,0,0,1-1.58,8q-11.94,37.72-24.07,75.39C115.87,182,108.35,187.46,94.85,187.28Z" transform="translate(-56.9 0)"/><path class="cls-1" d="M130,238.41c8.06,13.77,20.08,22.33,31.91,31,2.32,1.7,2.67,3,2,5.79a107,107,0,0,1-15.68,34.44C137,326.29,126.37,343.29,115,359.81c-3.18,4.61-8,8.13-12.14,12a12,12,0,0,1-3.6,1.92c-3.25,1.36-6.66,1.81-9.59-.46s-2.54-5.56-1.66-8.63a98.48,98.48,0,0,1,4.31-13.07c8.58-19.33,17.16-38.68,26.21-57.81,4.45-9.4,6.6-19.19,7.79-29.38C127.31,256,128.69,247.65,130,238.41Z" transform="translate(-56.9 0)"/><path class="cls-1" d="M209.77,0a34.81,34.81,0,0,1,.14,69.61c-19,.24-35-15.83-35-35A34.83,34.83,0,0,1,209.77,0Z" transform="translate(-56.9 0)"/></svg>