<?xml version="1.0" encoding="utf-8"?>
<!-- Generator: Adobe Illustrator 21.0.0, SVG Export Plug-In . SVG Version: 6.00 Build 0)  -->
<svg version="1.1" id="Layer_1" xmlns="http://www.w3.org/2000/svg" xmlns:xlink="http://www.w3.org/1999/xlink" x="0px" y="0px"
	 viewBox="0 0 16 16" style="enable-background:new 0 0 16 16;" xml:space="preserve">
<path style="fill:#F8A31D;" d="M14.9,1.1c-1.4-1.4-3.7-1.4-5.1,0L5.4,5.4C4,6.9,4,9.1,5.4,10.6c0.1,0.1,0.3,0.2,0.4,0.3l1.5-1.5
	C7.2,9.3,7,9.2,6.9,9.1c-0.6-0.6-0.6-1.6,0-2.2l4.4-4.4c0.6-0.6,1.6-0.6,2.2,0s0.6,1.6,0,2.2L12.2,6c0.4,0.8,0.5,1.7,0.4,2.5
	l2.3-2.3C16.4,4.8,16.4,2.5,14.9,1.1z"/>
<path style="fill:#666666;" d="M10.2,5.1L8.7,6.6c0,0,0.3,0.2,0.4,0.3c0.6,0.6,0.6,1.6,0,2.2l-4.4,4.4c-0.6,0.6-1.6,0.6-2.2,0
	s-0.6-1.6,0-2.2L3.8,10C3.4,9.2,3.7,8.7,3.4,7.5L1.1,9.8c-1.4,1.4-1.4,3.7,0,5.1s3.7,1.4,5.1,0l4.4-4.4c1.4-1.4,1.4-3.7,0-5.1
	C10.4,5.3,10.2,5.1,10.2,5.1z"/>
</svg>
