<?xml version="1.0" encoding="utf-8"?>
<!-- Generator: Adobe Illustrator 21.0.0, SVG Export Plug-In . SVG Version: 6.00 Build 0)  -->
<svg version="1.1" id="Layer_1" xmlns="http://www.w3.org/2000/svg" xmlns:xlink="http://www.w3.org/1999/xlink" x="0px" y="0px"
	 viewBox="0 0 64 64" style="enable-background:new 0 0 64 64;" xml:space="preserve">
<style type="text/css">
	.st0{fill:#FFFFFF;}
	.st1{display:none;fill:none;}
	.st2{display:none;}
	.st3{fill:#666666;}
	.st4{fill:#F8A31D;}
</style>
<g>
	<circle class="st0" cx="32" cy="32.2" r="29.5"/>
</g>
<g id="Layer_2">
	<g id="Layer_9">
		<path class="st1" d="M40,44.3c-1.6,1.3-3.5,2-5.7,2.2v4.9h-3.7v-4.9c-3.5,0-6.8-1.3-9.7-3.8l4.4-4.5c2.1,1.9,4.5,2.9,7.1,2.9
			c1.1,0,2-0.2,2.8-0.7c0.8-0.5,1.2-1.3,1.2-2.5c0-0.8-0.3-1.4-0.8-1.9l-1.1-0.5l-2-0.9l-3.8-1.7l-5.1-2.2L7.2,23.4
			c-1,2.6-1.4,5.5-1.4,8.6c0,7.1,2.6,13.2,7.8,18.4c5.2,5.1,11.4,7.7,18.5,7.7c7.2,0,13.4-2.6,18.6-7.8c1.9-1.8,3.3-3.7,4.4-5.6
			L43,39.3C42.6,41.3,41.6,43,40,44.3z"/>
	</g>
	<g id="Layer_8">
		<path class="st1" d="M50.6,13.4c-5.1-5.1-11.2-7.7-18.5-7.7c-7.3,0-13.4,2.6-18.5,7.7c-1.3,1.3-2.4,2.7-3.5,4.3l12.2,5.5
			c0.5-1.7,1.5-3,3-4c1.5-1,3.2-1.6,5.2-1.7v-4.9h3.7v4.9c2.9,0.2,5.6,1.1,8,3l-4.2,4.3c-1.8-1.3-3.6-1.9-5.5-1.9
			c-1,0-1.9,0.2-2.7,0.6c-0.8,0.4-1.2,1-1.2,1.9c0,0.3,0.1,0.5,0.3,0.8l2.3,1l26.1,11.6c0.5-2.2,0.8-4.5,0.8-6.9
			C58.2,24.6,55.7,18.5,50.6,13.4z"/>
	</g>
	<g id="Layer_7">
		<polygon class="st2" points="28.6,32.9 32.4,34.6 34.4,35.5 7.2,23.4 23.5,30.7 		"/>
	</g>
	<g id="Layer_6">
		<path class="st3" d="M54.7,9.3C48.5,3.1,40.9,0,31.9,0C23.1,0,15.6,3.1,9.4,9.3C3.1,15.7,0,23.2,0,32c0,8.7,3.1,16.2,9.4,22.5
			c6.3,6.3,13.8,9.5,22.5,9.5c8.8,0,16.4-3.2,22.9-9.5C61,48.5,64,41,64,32C64,23,60.9,15.4,54.7,9.3z M55.1,44.7
			c-1.1,1.9-2.5,3.8-4.4,5.6c-5.2,5.2-11.4,7.8-18.6,7.8c-7.1,0-13.3-2.6-18.5-7.7C8.4,45.2,5.8,39.1,5.8,32c0-3.1,0.5-6,1.4-8.6
			l2.9-5.7c1.1-1.6,2.3-3,3.5-4.3c5-5.1,11.2-7.7,18.5-7.7c7.3,0,13.4,2.6,18.5,7.7c5.1,5,7.7,11.2,7.7,18.6c0,2.3-0.3,4.6-0.8,6.9
			L55.1,44.7z"/>
	</g>
	<g id="Layer_3">
		<polygon class="st3" points="22.3,23.2 10.1,17.7 7.2,23.4 34.4,35.5 35.5,36 43,39.3 55.1,44.7 57.4,38.9 31.3,27.2 		"/>
	</g>
</g>
<g id="Layer_10">
	<g id="Layer_4">
		<path class="st4" d="M31.3,27.2l-2.3-1c-0.2-0.3-0.3-0.5-0.3-0.8c0-0.9,0.4-1.6,1.2-1.9c0.8-0.4,1.7-0.6,2.7-0.6
			c1.9,0,3.7,0.6,5.5,1.9l4.2-4.3c-2.4-1.8-5.1-2.8-8-3v-4.9h-3.7v4.9c-2,0.1-3.7,0.7-5.2,1.7c-1.5,1-2.5,2.3-3,4L31.3,27.2z"/>
	</g>
	<g id="Layer_5">
		<path class="st4" d="M35.2,40.3c-0.8,0.5-1.7,0.7-2.8,0.7c-2.7,0-5-1-7.1-2.9l-4.4,4.5c2.9,2.5,6.2,3.8,9.7,3.8v4.9h3.7v-4.9
			c2.2-0.2,4.1-0.9,5.7-2.2c1.6-1.3,2.6-2.9,3.1-4.9L35.5,36c0.5,0.5,0.8,1.1,0.8,1.9C36.3,39,36,39.8,35.2,40.3z"/>
	</g>
</g>
</svg>
