<?xml version="1.0" encoding="utf-8"?>
<!-- Generator: Adobe Illustrator 21.0.0, SVG Export Plug-In . SVG Version: 6.00 Build 0)  -->
<svg version="1.1" id="Layer_1" xmlns="http://www.w3.org/2000/svg" xmlns:xlink="http://www.w3.org/1999/xlink" x="0px" y="0px"
	 viewBox="0 0 64 64" style="enable-background:new 0 0 64 64;" xml:space="preserve">
<style type="text/css">
	.st0{fill:#FFFFFF;}
	.st1{fill:#666666;}
	.st2{fill:#F8A31D;}
</style>
<g>
	<path class="st0" d="M50.6,13.5c-5.1-5.1-11.2-7.7-18.5-7.7c-7.3,0-13.4,2.6-18.5,7.7C8.4,18.8,5.8,25,5.8,32
		c0,7.1,2.6,13.3,7.8,18.4c5.2,5.2,11.4,7.8,18.5,7.8c7.1,0,13.3-2.6,18.6-7.8c5-4.9,7.5-11,7.5-18.3C58.2,24.7,55.7,18.5,50.6,13.5
		z M43.7,44.7c-3.1,3.3-7.1,4.9-12,4.9c-3.6,0-6.7-1.1-9.4-3.3c-2.6-2.2-4.2-5.3-4.7-9.3h8.1c0.2,3.9,2.5,5.8,7,5.8
		c2.2,0,4.1-1,5.4-2.9c1.4-1.9,2.1-4.5,2.1-7.8c0-3.4-0.6-6-1.9-7.7c-1.3-1.8-3.1-2.7-5.4-2.7c-4.3,0-6.7,1.9-7.2,5.7h2.3l-6.3,6.3
		l-6.3-6.3l2.5,0c0.6-3.9,2.2-7,4.7-9.1c2.6-2.2,5.7-3.2,9.3-3.2c5,0,9,1.6,12,4.9c3,3.2,4.5,7.4,4.5,12.5
		C48.3,37.4,46.7,41.5,43.7,44.7z"/>
	<path class="st1" d="M54.7,9.3C48.5,3.1,40.9,0,31.9,0C23.1,0,15.6,3.1,9.4,9.3C3.1,15.7,0,23.3,0,32c0,8.8,3.1,16.3,9.4,22.6
		c6.4,6.3,13.9,9.4,22.5,9.4c8.8,0,16.5-3.2,22.9-9.5C61,48.5,64,41,64,32C64,23,60.9,15.5,54.7,9.3z M32.1,58.2
		c-7.2,0-13.3-2.6-18.5-7.8C8.4,45.3,5.8,39.1,5.8,32c0-7,2.6-13.2,7.8-18.5c5-5.1,11.2-7.7,18.5-7.7c7.3,0,13.4,2.6,18.5,7.7
		c5.1,5,7.7,11.2,7.7,18.5c0,7.4-2.5,13.5-7.5,18.3C45.4,55.6,39.2,58.2,32.1,58.2z"/>
	<path class="st2" d="M31.8,15.1c-3.7,0-6.8,1.1-9.3,3.2c-2.6,2.2-4.1,5.2-4.7,9.1l-2.5,0l6.3,6.3l6.3-6.3h-2.3
		c0.5-3.8,2.9-5.7,7.2-5.7c2.4,0,4.2,0.9,5.4,2.7c1.3,1.8,1.9,4.4,1.9,7.7c0,3.2-0.7,5.8-2.1,7.8c-1.4,1.9-3.2,2.9-5.4,2.9
		c-4.5,0-6.8-1.9-7-5.8h-8.1c0.5,4,2.1,7.1,4.7,9.3c2.6,2.2,5.8,3.3,9.4,3.3c4.9,0,8.9-1.6,12-4.9c3.1-3.3,4.6-7.3,4.6-12.3
		c0-5.1-1.5-9.2-4.5-12.5C40.9,16.8,36.9,15.1,31.8,15.1z"/>
</g>
</svg>
