<?xml version="1.0" encoding="utf-8"?>
<!-- Generator: Adobe Illustrator 21.0.0, SVG Export Plug-In . SVG Version: 6.00 Build 0)  -->
<svg version="1.1" id="Layer_1" xmlns="http://www.w3.org/2000/svg" xmlns:xlink="http://www.w3.org/1999/xlink" x="0px" y="0px"
	 viewBox="0 0 128 128" style="enable-background:new 0 0 128 128;" xml:space="preserve">
<g id="Word_download">
	<g>
		<g>
			<g>
				<path style="fill:#666666;" d="M102.4,79.3c-12.6,0-22.9,10.2-22.9,22.9S89.8,125,102.4,125s22.9-10.2,22.9-22.9
					S115.1,79.3,102.4,79.3z M112.8,95.5l-0.1,0.2l-7.8,10.9c-0.5,0.8-1.4,1.3-2.4,1.3c-1,0-1.9-0.5-2.4-1.3l-8-11.1
					c-0.5-0.9-0.5-2,0-2.9c0.5-0.9,1.5-1.4,2.5-1.4h4.1V85c0-1.6,1.3-2.9,2.9-2.9h1.9c1.6,0,2.9,1.3,2.9,2.9v6.2h4.1
					c1,0,2,0.5,2.5,1.4C113.3,93.5,113.3,94.6,112.8,95.5z"/>
			</g>
			<g>
				<g>
					<path style="fill:#666666;stroke:#666666;stroke-width:3.811;stroke-miterlimit:10;" d="M109.2,44.2L71.7,6.8
						C69.9,5,67.5,4,65,4H26.2c-5.3,0-9.5,4.3-9.5,9.5v99.1c0,5.3,4.3,9.5,9.5,9.5h57.1l-3.8-3.8H26.2c-3.2,0-5.7-2.6-5.7-5.7V13.5
						c0-3.2,2.6-5.7,5.7-5.7H65c1.5,0,3,0.6,4,1.7l37.5,37.5c1.1,1.1,1.7,2.5,1.7,4v20.6l3.8,3.8V51C112,48.4,111,46,109.2,44.2z"/>
				</g>
			</g>
		</g>
	</g>
</g>
<g>
	<path style="fill:#F8A31D;stroke:#F8A31D;stroke-width:2;stroke-miterlimit:10;" d="M37.6,51.5h17.6v3.6L43.9,70.2h11.6v4.5H37.2
		v-3.6L48.5,56H37.6V51.5z"/>
	<path style="fill:#F8A31D;stroke:#F8A31D;stroke-width:2;stroke-miterlimit:10;" d="M61.5,51.5H67v23.3h-5.4V51.5z"/>
	<path style="fill:#F8A31D;stroke:#F8A31D;stroke-width:2;stroke-miterlimit:10;" d="M74.3,51.5h9c2.7,0,4.7,0.7,6.2,2
		c1.4,1.3,2.1,3.2,2.1,5.6c0,2.4-0.7,4.3-2.1,5.6c-1.4,1.3-3.5,2-6.2,2h-3.6v8.1h-5.4V51.5z M79.7,55.8v6.5h3c1.1,0,1.9-0.3,2.4-0.9
		c0.6-0.6,0.9-1.4,0.9-2.4c0-1-0.3-1.8-0.9-2.4c-0.6-0.6-1.4-0.8-2.4-0.8H79.7z"/>
</g>
<g style="display:none;">
	<path style="display:inline;fill:#F8A31D;stroke:#F8A31D;stroke-width:2;stroke-miterlimit:10;" d="M30.9,51.5h6.9l4.8,12.5
		l4.8-12.5h6.9v23.3h-5.1V57.7l-4.8,12.6h-3.4l-4.8-12.6v17.1h-5.1V51.5z"/>
	<path style="display:inline;fill:#F8A31D;stroke:#F8A31D;stroke-width:2;stroke-miterlimit:10;" d="M61.6,51.5h9
		c2.7,0,4.7,0.7,6.2,2c1.4,1.3,2.1,3.2,2.1,5.6c0,2.4-0.7,4.3-2.1,5.6c-1.4,1.3-3.5,2-6.2,2h-3.6v8.1h-5.4V51.5z M67.1,55.8v6.5h3
		c1.1,0,1.9-0.3,2.4-0.9c0.6-0.6,0.9-1.4,0.9-2.4c0-1-0.3-1.8-0.9-2.4c-0.6-0.6-1.4-0.8-2.4-0.8H67.1z"/>
	<path style="display:inline;fill:#F8A31D;stroke:#F8A31D;stroke-width:2;stroke-miterlimit:10;" d="M95.6,62.2
		c1.4,0.4,2.5,1.1,3.2,2.1c0.7,1,1.1,2.3,1.1,3.8c0,2.3-0.8,4.1-2.4,5.3s-3.9,1.8-7,1.8c-1.1,0-2.2-0.1-3.2-0.3
		c-1.1-0.2-2.2-0.5-3.2-0.9v-4.6c1,0.6,2,1,3,1.3c1,0.3,2,0.4,3,0.4c1.4,0,2.5-0.3,3.3-0.8c0.8-0.6,1.1-1.3,1.1-2.4
		c0-1.1-0.4-1.9-1.2-2.4s-1.9-0.8-3.5-0.8h-2.2v-3.9H90c1.4,0,2.4-0.2,3-0.7c0.7-0.5,1-1.2,1-2.2c0-0.9-0.3-1.6-1-2.1
		c-0.6-0.5-1.6-0.7-2.8-0.7c-0.9,0-1.8,0.1-2.6,0.3c-0.9,0.2-1.8,0.5-2.7,1V52c1.1-0.3,2.1-0.6,3.2-0.8c1-0.2,2.1-0.3,3.1-0.3
		c2.7,0,4.8,0.5,6.1,1.5c1.4,1,2,2.5,2,4.5c0,1.4-0.3,2.5-1,3.4C97.8,61.2,96.9,61.9,95.6,62.2z"/>
</g>
<g style="display:none;">
	<path style="display:inline;fill:#F8A31D;stroke:#F8A31D;stroke-width:2;stroke-miterlimit:10;" d="M29.9,51.5h5.4V60l7.8-8.5h6.3
		l-10.1,11l11.2,12.3h-6.8l-8.3-9.2v9.2h-5.4V51.5z"/>
	<path style="display:inline;fill:#F8A31D;stroke:#F8A31D;stroke-width:2;stroke-miterlimit:10;" d="M54.3,51.5h6.9L66,63.9
		l4.8-12.5h6.9v23.3h-5.1V57.7l-4.8,12.6h-3.4l-4.8-12.6v17.1h-5.1V51.5z"/>
	<path style="display:inline;fill:#F8A31D;stroke:#F8A31D;stroke-width:2;stroke-miterlimit:10;" d="M85,51.5h5.4v18.8h9.5v4.5H85
		V51.5z"/>
</g>
</svg>
